<?xml version="1.0" standalone="no"?>
<!DOCTYPE svg PUBLIC "-//W3C//DTD SVG 20010904//EN"
 "http://www.w3.org/TR/2001/REC-SVG-20010904/DTD/svg10.dtd">
<svg version="1.0" xmlns="http://www.w3.org/2000/svg"
 width="700.000000pt" height="700.000000pt" viewBox="0 0 700.000000 700.000000"
 preserveAspectRatio="xMidYMid meet">
<metadata>
Created by potrace 1.11, written by Peter Selinger 2001-2013
</metadata>
<g transform="translate(0.000000,700.000000) scale(0.100000,-0.100000)"
fill="#000000" stroke="none">
<path d="M4379 5901 c-1 -3 -2 -52 -3 -108 l-2 -103 233 0 233 0 6 -27 c7 -34
41 -157 53 -198 5 -16 37 -133 71 -260 34 -126 79 -293 101 -369 40 -144 44
-166 32 -166 -5 0 -84 -20 -177 -44 -245 -64 -251 -74 -178 -306 l40 -124 -37
-13 c-20 -7 -52 -17 -71 -22 -19 -5 -109 -31 -200 -59 -91 -27 -181 -54 -200
-60 -19 -6 -195 -58 -390 -117 -414 -125 -579 -174 -600 -180 -8 -2 -112 -33
-230 -69 -118 -35 -218 -62 -222 -58 -11 11 -110 213 -106 217 6 5 241 145
244 145 16 0 118 77 143 107 120 145 15 373 -172 375 -29 0 -104 -13 -167 -30
-63 -17 -200 -53 -305 -80 -478 -125 -448 -116 -508 -171 -50 -46 -71 -98 -71
-176 0 -182 147 -280 419 -280 61 0 133 4 162 9 l51 8 51 -101 c49 -97 60
-131 44 -131 -5 0 -29 -19 -54 -43 -90 -83 -119 -107 -128 -107 -5 0 -30 18
-56 40 -190 165 -440 276 -686 307 -117 15 -326 7 -434 -16 -555 -116 -980
-582 -1039 -1138 -7 -64 -8 -250 -2 -293 13 -89 19 -119 36 -184 106 -415 424
-761 835 -909 252 -90 576 -95 830 -12 345 112 627 357 783 678 71 145 109
279 130 455 4 34 11 64 16 65 4 1 15 -16 24 -38 34 -88 111 -175 192 -219 73
-39 137 -53 230 -51 l86 3 68 -129 c38 -70 77 -136 88 -146 18 -16 44 -18 208
-21 l187 -3 0 110 0 111 -131 0 -132 0 -49 94 -49 94 36 40 c41 46 82 126 96
188 13 60 7 171 -12 227 -17 48 -17 48 6 66 13 10 66 54 119 97 53 44 115 95
139 114 24 19 107 86 185 149 145 119 329 268 618 504 93 75 172 137 177 137
8 0 25 -60 18 -63 -1 -1 -34 -18 -73 -37 -303 -150 -540 -419 -653 -740 -96
-274 -99 -571 -6 -846 28 -85 103 -247 116 -252 4 -2 8 -8 8 -13 0 -13 63
-103 119 -169 194 -231 478 -393 785 -446 116 -21 314 -21 431 0 278 49 507
168 705 366 175 175 280 352 345 585 34 119 44 216 41 375 -4 177 -29 305 -90
455 -178 442 -585 757 -1051 813 -78 9 -266 8 -330 -1 -109 -16 -135 -19 -135
-12 0 7 -204 670 -215 696 -5 14 12 21 112 45 65 15 123 29 128 30 6 2 29 8
53 14 62 15 90 37 103 80 12 40 -11 131 -242 968 -33 117 -59 217 -59 222 0 5
-9 34 -21 65 -34 91 -28 90 -361 91 -158 1 -289 -1 -289 -5z m-1439 -1685
c-13 -12 -68 -44 -325 -194 -88 -51 -183 -79 -279 -81 -141 -4 -259 40 -218
81 9 9 179 60 247 74 11 2 144 37 295 78 258 69 317 78 280 42z m1924 -258 c3
-13 6 -28 6 -35 0 -11 -170 -151 -824 -681 -533 -432 -508 -413 -525 -399 -59
47 -139 70 -250 71 l-83 1 -123 245 c-68 135 -120 248 -117 251 6 5 589 181
987 299 72 21 200 59 285 85 85 26 162 48 170 51 8 2 110 32 225 68 116 35
217 65 226 65 9 1 19 -9 23 -21z m-3124 -478 c134 -30 265 -82 370 -148 57
-37 140 -100 152 -117 7 -10 -18 -36 -111 -118 l-43 -39 -27 25 c-81 77 -238
150 -388 181 -64 14 -267 14 -332 1 -63 -13 -198 -64 -262 -101 -307 -173
-478 -519 -434 -879 10 -82 57 -223 101 -301 111 -199 293 -347 508 -413 96
-30 108 -31 226 -36 209 -8 392 50 564 180 164 123 281 312 322 520 10 50 20
92 21 94 2 2 51 6 109 9 l106 4 -6 -49 c-11 -97 -18 -130 -51 -230 -93 -281
-285 -501 -550 -633 -167 -82 -319 -118 -496 -115 -142 3 -226 17 -342 57
-555 190 -864 788 -696 1346 105 349 381 627 726 732 40 12 105 28 145 35 87
15 309 12 388 -5z m3976 -9 c209 -51 374 -143 522 -289 261 -258 375 -632 302
-990 -116 -570 -642 -943 -1227 -868 -86 11 -222 54 -318 100 -378 183 -617
561 -615 976 0 136 5 175 35 290 77 290 279 541 551 686 45 24 66 30 69 22 21
-60 55 -176 55 -188 -1 -8 -35 -35 -77 -60 -127 -75 -255 -215 -325 -355 -24
-48 -65 -161 -72 -201 -14 -72 -17 -110 -18 -180 -1 -231 83 -443 241 -608
178 -185 403 -278 654 -271 100 3 123 7 207 30 30 8 62 17 71 19 30 8 143 68
201 107 308 209 447 623 331 984 -86 270 -299 478 -583 571 -79 26 -97 28
-251 28 l-166 1 -31 100 c-17 54 -30 100 -29 102 2 1 32 6 67 11 102 15 312 6
406 -17z m-2850 -407 c140 -282 134 -257 72 -315 -16 -14 -65 -113 -82 -161
-11 -36 -24 -16 -36 55 -25 150 -97 331 -186 470 -24 37 -44 71 -44 75 0 4 10
15 23 24 12 10 44 38 71 63 27 25 50 45 52 45 2 0 60 -115 130 -256z m-1171
-24 c59 -13 178 -69 219 -103 l28 -23 -83 -73 c-46 -41 -100 -88 -119 -105
-46 -41 -110 -97 -195 -171 -118 -103 -130 -122 -119 -181 7 -39 54 -84 87
-85 34 -1 166 2 227 6 30 1 138 6 240 10 101 3 188 9 193 12 13 8 -1 -69 -24
-136 -87 -253 -322 -427 -589 -437 -380 -13 -681 274 -683 651 -1 340 258 625
593 652 41 3 76 7 78 8 3 3 87 -11 147 -25z m3975 -11 c162 -55 303 -177 378
-324 54 -107 72 -193 68 -324 -7 -181 -59 -304 -186 -432 -123 -124 -263 -186
-435 -194 -323 -14 -601 202 -665 516 -55 267 49 524 272 677 26 18 50 32 55
32 4 0 35 -87 67 -193 128 -415 148 -472 172 -497 24 -24 29 -25 157 -25 l132
0 1 107 2 107 -71 3 -70 3 -69 225 c-38 124 -77 248 -87 276 -9 28 -15 57 -13
64 7 21 212 6 292 -21z m-3160 -144 c47 -96 84 -208 96 -287 l6 -38 -39 -1
c-21 0 -71 -2 -110 -4 -52 -3 -73 -1 -74 8 -5 77 -58 213 -122 318 -8 13 -1
24 34 55 24 22 59 54 79 71 l35 33 23 -28 c13 -15 45 -72 72 -127z m-378 -220
c14 -33 29 -75 32 -93 l8 -32 -69 -1 c-37 0 -113 -2 -168 -5 -85 -3 -97 -2
-83 9 17 13 125 109 198 174 41 38 45 35 82 -52z m1218 16 c0 -3 -9 -12 -20
-19 -11 -7 -20 -8 -20 -3 0 5 -3 16 -6 24 -4 11 1 13 20 10 14 -3 26 -8 26
-12z m135 -277 l-16 -38 -25 43 c-25 41 -25 43 -8 56 11 7 28 20 39 28 19 15
20 14 23 -18 2 -18 -4 -50 -13 -71z m-242 -86 c16 -28 27 -52 25 -54 -11 -11
-93 24 -129 54 -46 40 -42 46 33 48 42 2 44 0 71 -48z"/>
</g>
</svg>
